<?xml version="1.0" standalone="no"?>
<!DOCTYPE svg PUBLIC "-//W3C//DTD SVG 20010904//EN"
 "http://www.w3.org/TR/2001/REC-SVG-20010904/DTD/svg10.dtd">
<svg version="1.0" xmlns="http://www.w3.org/2000/svg"
 width="400.000000pt" height="378.000000pt" viewBox="0 0 400.000000 378.000000"
 preserveAspectRatio="xMidYMid meet">

<g transform="translate(0.000000,378.000000) scale(0.100000,-0.100000)"
fill="#000000" stroke="none">
<path d="M1007 3056 c-543 -392 -990 -716 -993 -719 -3 -3 62 -214 146 -469
83 -255 226 -690 316 -968 91 -278 195 -594 230 -702 l66 -198 1228 0 1229 0
59 183 c33 100 138 418 232 707 161 492 244 745 405 1238 37 112 63 208 59
212 -5 4 -187 136 -404 292 -217 157 -460 332 -540 389 -753 544 -1038 749
-1041 749 -2 -1 -448 -322 -992 -714z m1696 117 c386 -278 812 -586 946 -682
134 -97 245 -181 248 -187 2 -6 -152 -488 -342 -1070 -190 -583 -353 -1080
-361 -1107 l-16 -47 -1178 0 -1178 0 -11 33 c-5 17 -168 516 -361 1107 -225
688 -349 1079 -344 1088 7 10 1882 1369 1892 1371 2 1 319 -227 705 -506z"/>
<path d="M1825 3119 c-216 -22 -433 -86 -630 -184 -175 -88 -295 -175 -446
-325 -169 -167 -197 -225 -142 -290 l26 -32 -25 -21 c-33 -29 -68 -89 -68
-117 0 -12 -16 -40 -35 -61 -60 -67 -57 -126 8 -150 l33 -12 -43 -76 c-76
-134 -78 -173 -7 -228 41 -31 53 -44 91 -91 21 -27 115 -92 133 -92 3 0 5 25
6 55 1 61 21 106 118 259 31 49 56 98 56 109 0 12 -9 31 -21 43 l-21 22 49 33
c120 83 166 147 128 179 -13 11 -11 15 13 33 59 45 102 92 102 113 0 19 -11
27 -60 45 -33 12 -63 26 -66 30 -6 11 55 67 146 133 143 103 344 188 550 233
120 26 468 26 590 0 188 -39 372 -113 505 -203 88 -59 187 -143 180 -154 -3
-5 -37 -20 -75 -35 -57 -22 -70 -31 -70 -49 0 -21 43 -69 102 -113 24 -18 26
-22 13 -33 -38 -32 8 -96 128 -179 l49 -33 -21 -22 c-12 -12 -21 -31 -21 -43
0 -11 25 -60 56 -109 97 -153 117 -198 118 -259 1 -30 3 -55 6 -55 18 0 112
65 131 90 13 18 35 42 48 53 99 89 104 95 96 134 -7 38 -48 125 -84 177 l-20
30 39 17 c64 29 64 93 -1 155 -17 16 -29 38 -29 52 0 29 -54 117 -77 126 -12
5 -8 14 21 46 21 24 36 50 36 65 0 70 -111 205 -275 337 -379 303 -864 446
-1340 397z m443 -34 c397 -56 773 -248 1041 -530 76 -80 117 -151 106 -185 -8
-26 -77 -73 -162 -111 -82 -37 -90 -34 -170 62 -177 214 -453 367 -776 431
-90 18 -146 22 -287 22 -205 0 -315 -16 -490 -74 -225 -73 -376 -167 -561
-347 -69 -68 -134 -123 -143 -123 -31 0 -173 79 -200 111 -39 45 -21 86 87
205 254 278 634 476 1035 538 118 19 392 19 520 1z m-1145 -791 c13 -14 -11
-39 -117 -118 -61 -46 -124 -98 -140 -115 -17 -17 -33 -31 -38 -31 -18 0 -118
74 -118 87 0 8 16 31 35 50 32 32 38 35 73 27 74 -16 98 -10 154 38 29 24 62
50 73 56 21 12 68 16 78 6z m1830 -6 c12 -6 46 -31 75 -56 56 -48 80 -54 154
-38 35 8 41 5 73 -27 19 -19 35 -42 35 -50 0 -13 -100 -87 -118 -87 -5 0 -19
12 -33 26 -13 15 -76 66 -140 115 -111 85 -135 109 -122 123 10 10 53 7 76 -6z
m116 -204 c30 -25 61 -54 69 -65 19 -27 40 -24 99 16 l52 35 36 -31 c30 -27
65 -76 65 -92 0 -3 -32 -24 -70 -47 l-71 -41 -27 28 c-15 16 -73 64 -129 106
-109 82 -130 106 -111 125 19 19 27 15 87 -34z m-2051 4 c-3 -7 -56 -53 -119
-101 -63 -48 -121 -97 -130 -109 l-16 -21 -72 43 c-39 23 -71 44 -71 47 0 27
76 113 99 113 9 0 36 -14 61 -30 59 -39 84 -38 132 6 54 48 125 80 116 52z
m-138 -227 c0 -4 -28 -49 -61 -101 -73 -113 -119 -205 -119 -241 0 -37 -7 -40
-47 -17 -78 47 -82 109 -13 244 51 101 57 107 97 92 26 -10 35 -8 73 15 38 23
70 26 70 8z m2387 -22 c34 16 42 7 93 -93 66 -130 65 -195 -3 -236 -44 -27
-57 -25 -57 9 0 34 -55 144 -130 259 -63 98 -58 117 22 75 42 -22 53 -24 75
-14z"/>
<path d="M1940 3010 c0 -15 7 -20 25 -20 23 0 24 -3 27 -67 2 -55 6 -68 20
-71 15 -3 18 7 20 70 3 67 5 73 26 76 12 2 22 10 22 18 0 11 -16 14 -70 14
-63 0 -70 -2 -70 -20z"/>
<path d="M1864 2968 l6 -53 -41 48 c-50 57 -80 63 -73 15 3 -18 8 -58 12 -88
5 -39 12 -55 22 -55 12 0 14 11 13 50 l-2 50 42 -47 c57 -64 72 -55 62 38 -8
82 -13 94 -32 94 -13 0 -14 -9 -9 -52z"/>
<path d="M2120 2940 c-22 -44 -40 -82 -40 -85 0 -12 41 -4 46 10 4 9 19 15 41
15 26 0 36 -5 40 -20 5 -18 43 -30 43 -13 0 4 -12 44 -27 90 -36 109 -49 110
-103 3z m67 -27 c-2 -2 -11 -1 -20 3 -14 5 -15 10 -5 27 l11 21 9 -23 c5 -13
7 -26 5 -28z"/>
<path d="M1674 2987 c-3 -8 1 -48 8 -88 10 -57 17 -75 31 -77 17 -3 18 1 12
51 -11 87 -20 120 -33 125 -6 2 -15 -3 -18 -11z"/>
<path d="M2307 2983 c-3 -10 -8 -36 -11 -58 -4 -22 -9 -52 -12 -67 -5 -23 -2
-28 14 -28 15 0 21 9 26 36 5 26 11 34 22 30 9 -3 23 -6 31 -6 13 0 14 -8 9
-40 -5 -35 -4 -40 13 -40 20 0 23 9 37 95 3 22 8 48 11 58 3 12 -1 17 -16 17
-14 0 -21 -9 -26 -31 -6 -25 -11 -30 -28 -25 -12 3 -26 6 -31 6 -5 0 -6 16 -3
35 5 30 3 35 -13 35 -10 0 -21 -8 -23 -17z"/>
<path d="M1530 2959 c-61 -17 -60 -16 -50 -46 5 -15 16 -53 24 -85 13 -47 19
-55 35 -51 16 4 18 10 10 36 -13 45 2 51 47 19 35 -25 74 -32 74 -14 0 4 -16
18 -34 32 -32 23 -33 26 -18 43 15 17 15 21 1 45 -16 30 -38 35 -89 21z m60
-43 c0 -8 -13 -19 -29 -24 -24 -8 -31 -7 -35 5 -9 22 2 33 35 33 18 0 29 -5
29 -14z"/>
<path d="M1353 2898 c-29 -11 -53 -24 -53 -29 0 -4 13 -41 30 -81 21 -52 34
-72 45 -70 40 8 105 43 105 57 0 19 0 19 -51 -1 -35 -14 -42 -15 -50 -3 -14
22 -12 25 31 42 29 11 38 20 34 31 -5 14 -10 14 -41 1 -45 -19 -53 -19 -53 1
0 9 17 22 40 31 22 9 39 21 37 27 -6 17 -20 16 -74 -6z"/>
<path d="M2611 2834 c-26 -61 -30 -79 -19 -85 8 -6 17 -2 25 9 35 49 53 55 53
18 0 -36 16 -72 36 -80 15 -6 16 -1 10 44 -4 28 -9 56 -12 63 -3 8 13 21 43
34 l48 20 -29 8 c-19 5 -39 3 -63 -9 -42 -20 -47 -17 -34 17 5 14 7 28 4 31
-17 17 -33 -1 -62 -70z"/>
<path d="M1201 2826 c-10 -12 -11 -23 -2 -47 20 -59 13 -65 -29 -24 -35 34
-41 37 -57 24 -10 -7 -19 -14 -21 -15 -3 -2 74 -143 82 -151 1 -1 7 2 15 6 10
7 9 17 -8 49 -28 56 -27 58 12 15 24 -26 39 -34 52 -30 12 5 15 14 11 32 -18
76 -18 82 3 43 24 -42 39 -54 52 -41 12 12 -62 147 -83 151 -8 2 -21 -4 -27
-12z"/>
<path d="M2811 2794 c-32 -23 -53 -77 -42 -106 10 -25 37 -52 63 -61 28 -10
78 13 93 44 28 53 18 102 -26 124 -36 19 -59 19 -88 -1z m89 -45 c9 -16 7 -27
-7 -52 -23 -39 -53 -45 -78 -17 -19 21 -19 22 0 56 14 26 24 34 46 34 18 0 32
-7 39 -21z"/>
<path d="M988 2697 c-26 -18 -48 -36 -48 -40 0 -12 90 -137 99 -137 4 0 23 12
42 26 19 14 40 29 48 33 8 5 11 16 8 25 -6 15 -11 14 -42 -10 -34 -26 -65 -27
-65 -1 0 7 14 21 30 30 17 10 30 22 30 27 0 20 -22 20 -51 -1 -24 -16 -33 -19
-42 -10 -12 13 -10 15 47 56 10 7 15 18 11 24 -9 15 -14 14 -67 -22z"/>
<path d="M2995 2710 c-4 -6 3 -18 14 -28 21 -17 21 -17 -19 -69 -43 -56 -47
-68 -26 -76 9 -4 28 13 52 49 38 55 51 63 72 42 9 -9 15 -9 24 0 6 6 10 13 7
15 -39 30 -108 77 -112 77 -3 0 -9 -5 -12 -10z"/>
<path d="M830 2563 l-40 -38 60 -65 c44 -49 61 -62 70 -54 9 9 8 18 -5 38 -17
26 -17 28 4 50 28 29 27 70 -1 90 -33 23 -44 20 -88 -21z m67 -19 c3 -8 -1
-23 -10 -31 -13 -14 -19 -14 -32 -3 -14 12 -14 15 1 31 21 23 33 24 41 3z"/>
<path d="M3097 2543 c-77 -36 -94 -58 -45 -58 36 0 71 -33 64 -61 -3 -12 0
-27 8 -33 18 -15 91 156 74 176 -14 17 -10 18 -101 -24z m51 -38 c-9 -20 -14
-23 -25 -13 -13 10 -12 14 3 25 27 20 35 16 22 -12z"/>
<path d="M1969 2605 l-22 -75 -83 0 c-46 0 -84 -4 -84 -9 0 -4 28 -28 63 -51
34 -24 63 -44 65 -46 2 -1 -9 -37 -23 -79 -15 -42 -24 -79 -21 -82 2 -3 32 16
65 41 33 25 63 46 68 46 5 0 37 -21 72 -46 34 -25 65 -43 68 -41 2 3 -7 38
-21 77 -15 39 -24 76 -21 81 4 5 26 23 51 40 25 17 43 33 40 36 -3 3 -28 -12
-56 -32 -52 -38 -52 -38 -86 -22 -19 9 -34 14 -34 11 0 -3 25 -41 54 -85 30
-43 53 -79 50 -79 -3 0 -29 18 -59 41 -48 36 -54 45 -57 82 l-3 42 -53 -77
c-29 -43 -54 -78 -56 -78 -1 0 6 27 17 61 17 50 27 65 59 85 l38 24 1 88 1 87
20 -60 c20 -55 20 -61 5 -87 -19 -33 -20 -33 70 -8 40 11 82 19 94 17 12 -1
24 4 26 11 4 9 -17 12 -80 12 l-84 0 -22 75 c-13 41 -26 75 -31 75 -5 0 -18
-34 -31 -75z m4 -113 c9 -8 15 -17 13 -20 -6 -6 -156 30 -156 38 0 13 125 -3
143 -18z"/>
<path d="M2460 2496 c-13 -13 -21 -14 -48 -4 -28 11 -38 10 -61 -3 -18 -11
-34 -13 -42 -8 -25 16 -50 9 -80 -20 -35 -36 -37 -60 -5 -98 16 -20 23 -37 19
-54 -3 -18 3 -35 21 -56 14 -17 26 -38 26 -47 0 -13 4 -15 19 -6 30 16 57 12
111 -15 54 -27 81 -31 112 -14 19 10 20 9 13 -7 -13 -29 -10 -72 7 -92 9 -9
13 -23 11 -29 -3 -9 7 -13 30 -13 26 0 47 -10 78 -36 52 -43 84 -57 112 -48
19 6 18 3 -6 -26 -22 -26 -26 -38 -21 -65 4 -21 1 -35 -7 -40 -8 -5 0 -12 22
-19 27 -9 39 -22 59 -63 14 -28 33 -60 43 -70 19 -22 23 -53 7 -53 -21 0 -60
-49 -60 -75 0 -16 -6 -25 -15 -25 -21 0 -19 -4 15 -38 24 -24 30 -39 30 -74 1
-24 7 -56 14 -73 12 -28 11 -32 -13 -57 -14 -16 -36 -28 -48 -28 -20 0 -21 -1
-7 -29 13 -26 13 -34 -6 -83 -24 -62 -26 -115 -6 -144 13 -18 13 -24 0 -50
-24 -45 -32 -50 -49 -28 -32 42 -94 173 -116 244 -44 140 -25 359 36 414 13
12 31 27 40 34 21 18 16 71 -7 86 -13 8 -26 7 -50 -3 -23 -9 -72 -13 -158 -12
-127 2 -165 -4 -279 -47 -64 -24 -76 -21 -76 16 0 28 0 28 57 24 36 -3 74 2
108 13 43 14 77 17 181 13 l129 -5 50 79 c28 43 50 82 50 86 0 4 -67 6 -148 4
l-148 -3 -14 25 c-38 72 -167 73 -214 2 -15 -23 -23 -26 -81 -26 -36 0 -65 3
-65 8 0 4 18 20 40 36 21 16 37 33 34 38 -3 4 2 11 11 14 12 5 13 9 4 21 -10
11 -8 15 10 20 24 6 51 50 51 83 0 38 -28 77 -95 129 -36 28 -65 55 -65 59 0
4 -7 15 -14 25 -12 15 -22 9 -110 -76 -92 -90 -96 -96 -96 -136 0 -35 6 -48
30 -71 26 -24 28 -29 13 -34 -14 -6 -7 -16 35 -53 29 -25 52 -50 52 -54 0 -5
-26 -9 -57 -9 -54 0 -60 2 -86 35 -47 59 -150 57 -197 -3 -21 -27 -24 -27
-165 -32 l-143 -5 53 -81 53 -81 120 5 c94 4 130 1 168 -12 118 -40 238 -3
274 85 19 45 54 39 80 -11 12 -23 35 -50 53 -60 32 -20 32 -20 6 -20 -31 0
-59 -28 -59 -59 0 -27 46 -75 65 -67 7 2 30 8 49 12 39 7 44 -2 26 -37 -10
-18 -23 -19 -180 -19 l-170 0 -6 25 c-4 14 -5 28 -2 30 2 2 23 -1 46 -7 76
-19 125 30 91 91 -25 45 -97 35 -85 -11 8 -32 -20 -31 -111 3 -84 31 -94 33
-233 34 -93 0 -153 5 -167 13 -29 16 -38 15 -57 -4 -33 -32 -14 -89 36 -107
11 -4 26 -34 40 -79 29 -92 31 -232 5 -328 -17 -63 -82 -205 -112 -244 -24
-32 -27 -12 -5 43 30 76 26 130 -14 210 -18 37 -46 103 -62 146 -27 77 -28 87
-28 255 1 193 -3 175 84 352 22 46 55 99 73 118 44 49 205 167 305 224 45 27
87 56 92 65 5 10 32 33 59 52 28 19 51 37 51 41 0 9 -146 21 -160 13 -7 -4
-16 -2 -20 5 -17 28 -198 -45 -307 -123 -25 -17 -61 -42 -80 -55 -143 -96
-327 -372 -367 -552 -28 -124 -42 -347 -27 -438 15 -90 62 -237 99 -305 31
-57 86 -94 156 -103 26 -4 57 -14 68 -23 20 -17 20 -17 -7 -49 -24 -29 -30
-31 -68 -26 -87 13 -160 58 -231 144 -27 33 -29 33 -42 15 -8 -10 -14 -34 -14
-52 0 -31 -2 -33 -34 -33 -51 0 -96 -11 -96 -24 1 -6 27 -28 58 -48 31 -20 84
-55 116 -78 32 -22 85 -48 118 -58 56 -16 58 -18 52 -44 -13 -61 21 -91 124
-109 98 -17 95 -15 66 -59 -15 -22 -24 -46 -21 -54 9 -22 165 -98 289 -140
391 -134 864 -104 1210 75 99 52 108 67 74 119 l-25 39 57 11 c139 28 170 50
159 113 -5 32 -4 33 53 50 32 9 91 40 132 67 40 28 92 63 115 78 23 15 43 32
43 38 0 13 -45 24 -94 24 -29 0 -31 3 -32 35 0 20 -7 42 -15 51 -13 12 -21 8
-62 -40 -53 -62 -141 -110 -218 -121 -44 -5 -48 -4 -68 24 -12 16 -21 33 -21
38 0 18 86 91 121 102 41 13 56 28 89 89 18 32 33 45 62 54 22 6 35 15 31 22
-4 6 -6 26 -4 44 2 20 -4 41 -13 51 -12 13 -14 25 -6 50 5 18 5 42 1 54 -5 12
-4 51 1 87 8 51 16 72 40 97 29 30 29 31 9 38 -14 4 -21 15 -21 31 0 23 -31
64 -49 64 -18 0 -21 50 -5 82 14 27 15 40 5 81 -15 66 -14 109 4 133 20 27 18
37 -6 31 -15 -4 -22 1 -29 18 -9 25 -38 45 -64 45 -17 0 -76 56 -76 73 0 11
-12 31 -62 106 -10 15 -18 45 -18 69 0 39 -1 41 -19 30 -15 -9 -22 -8 -37 6
-13 14 -27 17 -56 13 -43 -6 -92 14 -107 42 -6 10 -28 30 -49 45 -39 27 -58
58 -64 104 -3 21 -5 21 -18 8z m-37 -23 c2 -5 2 -25 0 -45 -5 -36 -7 -38 -39
-38 -41 0 -52 -20 -36 -64 9 -23 9 -32 1 -35 -6 -2 -21 -13 -32 -24 -15 -15
-24 -17 -36 -10 -19 12 -27 61 -12 76 7 7 2 16 -19 29 -36 21 -40 58 -10 88
23 23 42 25 72 9 16 -9 24 -7 36 5 17 16 67 22 75 9z m-809 -65 c-8 -27 -33
-58 -47 -58 -11 0 0 49 15 67 18 22 40 16 32 -9z m174 7 c1 -1 -22 -19 -52
-40 -48 -33 -56 -35 -77 -24 l-23 12 22 8 c32 12 27 22 -8 14 -16 -4 -30 -3
-30 2 0 17 16 31 40 35 22 4 121 -2 128 -7z m-239 -36 c-11 -32 -34 -59 -50
-59 -4 0 -7 17 -6 37 2 30 8 39 32 49 17 7 31 11 33 10 1 -2 -3 -18 -9 -37z
m-76 -31 c-3 -27 -13 -49 -27 -60 -25 -20 -31 -17 -17 11 9 16 9 19 -2 15 -26
-10 -7 41 21 59 15 9 28 17 29 17 0 0 -1 -19 -4 -42z m-73 -43 c0 -33 -6 -50
-22 -65 -25 -23 -38 -9 -16 17 11 15 11 16 -5 10 -15 -6 -17 -3 -12 16 6 19
43 67 52 67 2 0 3 -20 3 -45z m259 32 c57 -24 5 -38 -58 -16 -24 9 -29 14 -19
20 19 12 41 11 77 -4z m-62 -29 c40 -14 42 -25 7 -34 -26 -7 -104 13 -104 27
0 20 51 24 97 7z m-288 -121 c-26 -21 -35 -16 -19 12 13 25 2 28 -16 4 -13
-17 -13 -17 -14 0 0 24 18 57 44 78 21 17 21 17 24 -29 3 -38 -1 -50 -19 -65z
m1329 95 c15 -16 20 -16 45 -4 24 12 31 12 52 -2 22 -15 23 -18 10 -43 -8 -16
-15 -33 -15 -40 0 -8 -9 -8 -36 0 -43 13 -57 -1 -48 -48 5 -27 2 -32 -32 -47
-28 -13 -41 -14 -51 -6 -18 15 -16 48 4 70 16 18 15 19 -5 34 -28 19 -28 58
-2 84 25 25 54 26 78 2z m-1117 -14 c42 -12 49 -22 23 -32 -26 -10 -76 -7 -69
4 4 6 -7 10 -27 10 l-33 1 25 14 c31 18 34 18 81 3z m-274 -125 c-5 -12 -16
-24 -24 -28 -12 -4 -14 0 -8 22 5 23 4 25 -9 14 -29 -24 -19 30 12 62 l27 28
6 -38 c4 -20 2 -47 -4 -60z m230 76 c27 -10 27 -11 9 -25 -27 -19 -80 -19 -73
0 5 12 -2 13 -31 9 -35 -5 -36 -5 -17 10 23 19 72 22 112 6z m566 -58 c35 -37
47 -57 47 -80 0 -42 -18 -39 -69 11 -36 36 -44 40 -51 27 -5 -9 -25 -28 -45
-43 l-35 -27 0 35 c0 29 8 43 47 81 26 25 50 45 53 45 3 0 26 -22 53 -49z
m-873 -104 l-22 -22 6 28 c4 19 3 26 -6 25 -22 -5 -20 37 4 67 l23 30 9 -53
c8 -49 7 -55 -14 -75z m245 114 l30 -6 -25 -18 c-13 -9 -40 -17 -60 -16 -19 0
-29 3 -22 6 24 9 11 19 -20 16 -31 -4 -32 -3 -14 11 20 16 58 19 111 7z m-71
-51 c27 0 28 -1 13 -18 -17 -18 -77 -29 -77 -14 0 5 -13 7 -30 4 -16 -2 -30
-2 -30 2 0 12 56 35 75 31 11 -3 33 -5 49 -5z m-212 -125 c-14 -29 -36 -24
-27 6 4 13 2 19 -7 17 -20 -5 -21 40 -2 70 l18 27 15 -47 c11 -38 12 -53 3
-73z m178 66 c0 -14 -41 -41 -62 -41 -10 0 -18 4 -18 10 0 6 -9 6 -26 0 -42
-17 -50 -11 -21 15 22 19 39 25 78 25 27 0 49 -4 49 -9z m-216 -139 c-11 -31
-29 -31 -28 -1 0 12 -4 18 -12 15 -26 -10 -32 48 -8 83 l17 23 20 -47 c15 -35
18 -53 11 -73z m1816 98 c11 -11 20 -24 20 -30 0 -5 13 -10 28 -10 16 0 37 -9
47 -20 18 -20 18 -21 -12 -52 l-31 -30 -32 23 c-31 24 -32 24 -46 5 -8 -11
-14 -29 -14 -41 0 -18 -6 -20 -45 -20 -24 1 -47 4 -51 8 -13 13 7 58 31 69 19
9 22 15 15 29 -15 26 -12 50 7 71 21 24 58 23 83 -2z m-1650 -29 c-5 -10 -24
-24 -41 -30 -39 -13 -42 -14 -34 -1 9 14 -1 12 -35 -5 -35 -18 -39 -7 -7 22
26 24 35 27 88 30 36 2 39 1 29 -16z m-200 -128 c0 -21 -23 -63 -31 -57 -5 3
-9 16 -9 30 0 14 -4 22 -10 19 -6 -3 -15 6 -21 22 -8 22 -7 35 6 61 l16 34 24
-48 c14 -27 25 -54 25 -61z m170 66 c-12 -22 -73 -53 -78 -39 -2 4 -17 1 -33
-7 -42 -21 -46 -11 -9 25 22 22 42 32 73 35 23 2 46 4 50 5 4 1 3 -7 -3 -19z
m514 -23 c24 -10 37 -24 46 -50 13 -40 7 -56 -21 -56 -12 0 -19 7 -19 20 0 11
-9 29 -20 40 -11 11 -29 20 -40 20 -29 0 -60 -35 -60 -69 0 -86 149 -123 261
-66 37 19 45 15 27 -14 -49 -79 -236 -76 -307 4 -84 96 13 221 133 171z m613
-11 c25 -17 43 -71 36 -109 -8 -42 -54 -83 -113 -100 -70 -21 -115 -20 -166 3
-36 16 -80 59 -70 68 1 2 24 -6 51 -18 94 -42 207 -23 240 41 27 52 -16 110
-71 96 -25 -7 -49 -49 -38 -67 3 -5 -6 -9 -20 -9 -22 0 -26 5 -26 28 0 33 24
70 54 83 27 11 94 2 123 -16z m-1358 -66 c19 -39 23 -55 15 -76 -12 -36 -27
-35 -35 2 -4 17 -7 24 -8 18 -2 -20 -17 -15 -28 10 -8 17 -7 32 4 60 8 20 18
37 22 37 3 -1 17 -23 30 -51z m201 45 c0 -17 -24 -46 -50 -59 -34 -18 -44 -19
-35 -5 9 15 0 12 -41 -12 l-36 -21 15 30 c21 39 36 51 83 62 49 11 64 13 64 5z
m505 -14 c3 -6 -4 -10 -17 -10 -18 0 -20 2 -8 10 19 12 18 12 25 0z m590 0 c3
-5 -3 -10 -15 -10 -12 0 -18 5 -15 10 3 6 10 10 15 10 5 0 12 -4 15 -10z
m-1152 -92 c-18 -17 -40 -32 -50 -33 -10 0 -31 -9 -46 -19 -15 -10 -31 -16
-34 -12 -8 7 27 56 48 67 21 12 103 35 108 32 3 -2 -9 -18 -26 -35z m-164 -52
c22 -20 27 -61 11 -86 -9 -13 -11 -13 -20 0 -5 8 -10 22 -10 30 0 12 -2 12 -9
2 -6 -11 -13 -7 -30 14 -24 31 -24 28 -10 78 l11 39 17 -29 c10 -16 28 -38 40
-48z m160 -9 c-5 -20 -21 -45 -36 -57 -32 -25 -44 -26 -36 -2 3 9 -10 -1 -30
-23 -28 -31 -36 -36 -37 -22 -1 43 30 82 87 112 32 17 59 30 60 30 1 -1 -2
-18 -8 -38z m-149 -159 c0 -48 -18 -58 -33 -19 -6 17 -15 31 -19 31 -4 0 -5
-8 -1 -17 6 -16 3 -15 -16 2 -35 31 -43 52 -35 100 l6 44 49 -52 c39 -42 48
-59 49 -89z m478 104 c77 14 196 -1 287 -37 36 -15 77 -25 92 -23 24 2 28 7
26 31 -1 15 2 27 7 27 5 0 15 3 23 6 21 8 51 -39 42 -66 -11 -33 -38 -41 -94
-28 -28 6 -53 9 -56 7 -2 -3 0 -22 6 -42 l10 -37 184 0 c202 0 184 -6 200 64
5 26 4 28 -17 22 -13 -3 -42 -9 -64 -12 -38 -6 -44 -4 -59 20 -25 38 -7 79 33
74 21 -2 27 -8 27 -27 0 -43 26 -48 102 -18 105 41 166 50 282 44 86 -5 109
-3 132 10 46 27 83 -4 61 -53 -7 -13 -20 -24 -31 -24 -13 0 -25 -15 -40 -52
-66 -166 -52 -345 41 -531 32 -64 94 -165 116 -186 25 -26 62 -90 62 -110 0
-32 -28 -44 -120 -51 -78 -6 -96 -11 -142 -40 -123 -79 -224 -108 -328 -95
-87 11 -140 45 -221 144 l-36 44 -36 -55 c-63 -99 -134 -138 -251 -138 -96 0
-186 28 -253 79 -56 42 -119 61 -202 61 -65 0 -97 25 -86 66 5 16 8 31 7 34 0
3 8 16 18 30 15 20 20 22 34 11 14 -12 14 -16 -6 -44 l-21 -30 47 5 c45 5 53
3 100 -33 106 -81 251 -139 347 -139 56 0 138 39 190 91 92 92 108 289 28 365
-31 29 -59 74 -59 94 0 5 9 10 21 10 27 0 79 -55 86 -92 8 -41 23 -34 23 11 0
45 -30 87 -87 122 -39 24 -63 70 -63 121 l0 33 24 -30 c30 -37 43 -28 22 14
-22 41 -21 73 2 69 10 -2 22 -20 30 -46 16 -50 32 -46 32 7 0 27 7 44 25 61
23 22 26 22 49 6 16 -10 27 -29 31 -53 4 -21 8 -45 9 -53 2 -9 8 -2 14 15 17
43 27 58 40 63 16 5 16 -39 0 -73 -16 -35 -1 -45 22 -15 l20 25 0 -40 c0 -49
-17 -75 -75 -115 -50 -35 -75 -74 -75 -120 0 -38 15 -39 28 -2 14 40 61 92 83
92 36 0 20 -48 -37 -112 -87 -97 -68 -262 40 -364 127 -120 278 -108 501 38
59 39 92 54 127 58 l46 5 -64 80 c-75 92 -146 231 -168 325 -20 84 -20 239 -1
331 9 40 14 74 12 75 -8 8 -97 -57 -121 -89 -93 -122 -99 -332 -15 -503 31
-62 126 -169 161 -180 21 -6 24 -24 4 -24 -20 0 -106 70 -139 114 -40 52 -83
151 -97 224 -18 87 -8 222 21 297 28 74 114 165 174 185 22 7 44 16 49 21 18
16 -51 31 -159 32 -103 2 -113 0 -156 -25 -71 -42 -73 -52 -65 -319 6 -188 5
-230 -6 -227 -10 3 -16 55 -23 199 l-10 194 -186 3 -187 2 -6 -77 c-3 -43 -8
-133 -12 -200 -4 -90 -10 -123 -20 -127 -12 -4 -13 35 -11 245 l2 250 -32 29
c-18 16 -49 34 -70 39 -78 22 -283 9 -283 -18 0 -3 22 -14 49 -24 58 -20 130
-86 162 -148 105 -205 37 -510 -142 -640 -43 -31 -54 -36 -61 -25 -2 2 21 22
50 46 64 50 122 137 154 228 19 54 23 88 23 177 0 99 -3 116 -28 170 -16 33
-45 77 -65 98 -36 37 -90 73 -98 65 -2 -3 3 -38 12 -79 24 -111 15 -291 -19
-386 -14 -39 -37 -92 -52 -117 -21 -36 -24 -49 -15 -65 7 -14 7 -21 0 -21 -5
0 -10 8 -10 17 0 12 -8 7 -29 -17 -24 -29 -32 -33 -43 -22 -11 11 -10 18 6 45
103 175 141 303 133 447 -6 105 -38 218 -66 227 -29 11 -51 36 -51 59 0 36 27
44 75 23 36 -16 49 -17 103 -7z m1548 3 c9 -14 14 -32 10 -40 -3 -9 0 -15 10
-15 16 0 64 -43 64 -59 0 -5 -18 -18 -40 -29 -37 -18 -40 -18 -45 -2 -3 10
-14 25 -24 34 -18 17 -20 16 -46 -17 -26 -32 -29 -34 -54 -21 -14 8 -32 14
-38 14 -7 0 -13 8 -13 17 0 24 30 53 55 53 18 0 21 4 17 25 -11 58 71 90 104
40z m-1917 -99 c-23 -23 -39 -33 -36 -23 10 27 -6 19 -28 -15 -31 -49 -45 -47
-34 4 10 44 36 74 101 113 l33 21 3 -30 c3 -23 -5 -37 -39 -70z m409 55 c8 -5
11 -17 7 -34 l-7 -25 -50 26 c-47 25 -49 27 -27 33 34 10 62 10 77 0z m127 -1
c16 -7 17 -9 3 -9 -9 -1 -32 -19 -51 -42 -35 -41 -51 -41 -40 0 3 12 11 20 18
17 17 -6 35 13 28 30 -6 16 11 17 42 4z m761 -7 c0 -11 7 -19 20 -21 12 -2 24
-11 27 -21 10 -39 -10 -34 -56 12 l-47 47 29 0 c21 0 28 -5 27 -17z m52 5 c7
-7 12 -19 12 -27 0 -11 -3 -11 -13 4 -8 10 -19 15 -25 11 -13 -8 -17 6 -5 17
9 10 17 9 31 -5z m117 6 c13 -5 5 -13 -31 -30 -27 -13 -49 -22 -50 -21 -1 1
-5 14 -9 30 -7 26 -6 27 33 27 22 0 48 -3 57 -6z m-985 -14 c0 -5 -9 -10 -20
-10 -11 0 -20 -5 -20 -12 0 -6 -3 -9 -6 -5 -4 3 -4 13 -1 22 7 16 47 21 47 5z
m785 -19 c27 -16 75 -81 60 -81 -3 0 -20 16 -37 36 -26 30 -36 35 -60 30 -20
-4 -28 -2 -28 8 0 12 12 23 30 25 3 1 19 -7 35 -18z m-678 -6 c8 -23 -2 -28
-26 -14 -17 12 -23 10 -45 -10 -14 -13 -28 -32 -32 -43 -5 -18 -24 -26 -24
-10 0 5 16 27 36 50 37 44 79 56 91 27z m61 -66 c1 -43 -3 -46 -30 -22 -15 13
-22 14 -44 4 -15 -6 -28 -10 -31 -8 -8 9 30 31 65 38 31 6 34 8 16 14 -14 4
-21 15 -21 31 l0 25 22 -21 c16 -15 23 -33 23 -61z m537 71 c-4 -6 -2 -17 4
-24 9 -11 5 -15 -19 -18 -34 -5 -36 -1 -14 30 15 21 42 32 29 12z m-1295 -156
c0 -35 -3 -42 -15 -38 -8 4 -18 17 -21 30 -3 13 -11 24 -16 24 -6 0 -8 -7 -4
-15 9 -23 -8 -18 -37 13 -22 23 -27 37 -27 81 l0 52 60 -52 c56 -49 60 -55 60
-95z m150 113 c0 -44 -60 -132 -70 -103 -5 16 -8 15 -19 -12 -7 -17 -22 -39
-33 -49 -21 -18 -21 -18 -14 31 10 67 13 73 50 95 17 11 42 31 55 45 14 14 26
26 28 26 2 0 3 -15 3 -33z m1214 17 c18 -7 61 -72 53 -80 -3 -3 -25 10 -50 29
-34 26 -42 38 -34 46 13 13 11 13 31 5z m-679 -14 c11 -5 14 -9 8 -9 -7 -1
-30 -17 -51 -36 -41 -36 -59 -37 -40 -1 27 52 45 62 83 46z m871 -35 c-3 -9
-18 -15 -33 -15 l-28 1 30 24 c29 24 43 19 31 -10z m-1046 -15 c0 -3 -12 -5
-27 -5 -21 1 -29 7 -31 24 -4 23 -4 23 27 5 17 -10 31 -21 31 -24z m815 24
c35 -16 85 -64 68 -64 -6 0 -16 7 -24 16 -7 8 -25 22 -39 29 -24 12 -30 12
-46 0 -24 -18 -34 -19 -34 -2 0 15 20 37 33 37 5 0 24 -7 42 -16z m-601 -39
c3 -8 15 -15 26 -15 12 0 20 -7 20 -17 0 -13 -3 -14 -12 -5 -17 17 -71 15 -94
-4 -19 -15 -19 -16 1 -8 44 16 71 15 85 -1 11 -13 11 -21 2 -36 -10 -16 -9
-19 3 -19 8 0 15 -4 15 -10 0 -13 -6 -13 -29 1 -14 9 -25 8 -51 -5 -40 -19
-60 -3 -33 26 25 28 53 32 69 11 14 -17 15 -17 12 2 -4 26 -42 31 -75 10 -24
-16 -25 -16 -20 -1 4 9 2 16 -4 16 -17 0 10 39 39 54 34 19 39 19 46 1z m629
-13 c37 -38 34 -43 -10 -21 -21 11 -42 18 -48 16 -44 -17 -55 -18 -55 -3 0 9
6 13 13 10 8 -3 20 2 27 11 19 23 43 18 73 -13z m-869 -6 c-3 -9 -10 -16 -15
-16 -14 0 -11 28 4 33 16 6 19 3 11 -17z m154 4 c-7 -11 -16 -20 -21 -20 -4 0
-3 9 3 20 6 11 15 20 20 20 6 0 5 -9 -2 -20z m907 9 c12 -19 -5 -23 -22 -6
-16 16 -16 17 -1 17 9 0 20 -5 23 -11z m-1397 -69 c-11 -33 -57 -89 -58 -71 0
8 -12 -8 -26 -37 -32 -64 -48 -59 -39 12 6 45 14 58 64 107 50 50 57 53 62 35
3 -12 2 -32 -3 -46z m-160 -39 c15 -14 22 -32 22 -56 0 -43 -23 -47 -44 -7
-11 19 -15 22 -16 10 0 -24 -9 -23 -42 5 -22 18 -29 33 -34 81 l-7 58 49 -35
c27 -20 59 -45 72 -56z m547 72 c21 -10 34 -22 31 -30 -3 -7 3 -17 12 -22 14
-8 14 -11 2 -11 -12 0 -11 -4 4 -15 29 -22 14 -28 -22 -9 -21 10 -43 13 -62 9
-37 -8 -38 -3 -5 19 20 13 30 14 46 5 11 -6 23 -8 26 -6 3 3 -10 13 -28 22
-29 16 -33 16 -41 1 -11 -20 -28 -21 -28 -1 0 22 27 30 57 16 14 -6 28 -9 31
-7 3 3 -11 13 -31 21 -21 8 -37 17 -37 20 0 8 7 6 45 -12z m649 -35 c3 -29 8
-116 12 -194 l6 -140 -36 -11 -35 -11 15 30 c20 39 12 58 -25 58 -22 0 -38
-10 -61 -37 -22 -27 -31 -32 -28 -18 2 10 29 39 62 64 65 50 86 87 86 157 0
40 -2 45 -15 34 -13 -10 -15 -9 -15 11 0 13 -4 30 -9 38 -8 12 -13 12 -35 -3
-14 -9 -26 -22 -26 -29 -1 -6 -7 2 -14 18 -7 17 -26 39 -41 49 -27 18 -27 17
-56 -10 -16 -15 -29 -37 -29 -47 0 -18 -3 -17 -25 7 -35 38 -55 34 -55 -10 0
-31 -2 -35 -15 -24 -10 8 -15 31 -15 66 l0 54 174 0 175 0 5 -52z m326 45 c-8
-3 -27 -12 -42 -20 -16 -7 -28 -11 -28 -9 0 9 54 35 70 35 13 -1 13 -1 0 -6z
m-159 -24 c26 -22 21 -22 -25 1 -26 13 -30 13 -46 -8 -10 -12 -21 -22 -24 -22
-8 0 -8 35 1 43 14 15 72 6 94 -14z m189 -19 c0 -18 -19 -20 -28 -3 -9 14 -14
15 -36 5 -35 -15 -33 -7 1 12 28 14 63 6 63 -14z m-190 -8 c14 -11 19 -23 15
-34 -6 -16 -9 -16 -37 -2 -17 9 -41 14 -54 11 -13 -2 -24 0 -24 4 0 5 6 9 14
9 8 0 16 7 20 15 7 20 39 19 66 -3z m175 -22 c8 0 15 -4 15 -9 0 -5 -18 -7
-40 -4 -27 4 -47 0 -65 -11 -14 -9 -25 -12 -25 -7 0 6 19 21 42 35 36 21 44
23 51 11 4 -8 15 -15 22 -15z m-1355 -38 c0 -44 -38 -132 -48 -115 -5 7 -15
-8 -26 -39 -22 -61 -39 -52 -40 21 -1 37 5 56 22 78 12 15 35 44 50 64 32 43
42 41 42 -9z m1161 8 c13 -10 19 -19 12 -20 -6 0 -15 5 -18 10 -9 15 -45 12
-51 -5 -7 -18 -24 -20 -24 -2 0 38 45 47 81 17z m-577 -6 c9 -24 0 -29 -19
-10 -20 20 -25 20 -53 0 -12 -8 -22 -11 -22 -5 0 29 84 42 94 15z m770 -6 c14
-23 -2 -37 -18 -15 -16 21 -45 22 -74 1 -12 -8 -22 -11 -22 -7 0 15 55 43 79
40 13 -1 29 -10 35 -19z m-943 -9 c26 -22 21 -22 -25 1 -25 13 -30 12 -41 -3
-15 -20 -35 -22 -35 -4 0 21 10 27 46 27 18 0 42 -9 55 -21z m747 -5 c12 -8
22 -22 22 -30 0 -16 -16 -19 -25 -4 -3 6 -17 10 -31 10 -22 0 -23 3 -14 20 13
24 19 25 48 4z m732 -4 c24 -24 26 -57 5 -87 -14 -20 -14 -23 4 -32 20 -11 32
-43 22 -59 -9 -15 -91 -3 -91 14 0 7 -4 24 -10 39 -10 25 -10 25 -46 10 -36
-15 -38 -14 -61 7 -28 26 -29 40 -4 62 13 12 27 15 45 10 20 -5 26 -2 26 9 0
21 38 47 67 47 13 0 32 -9 43 -20z m-1327 -4 c4 -9 -7 -17 -31 -24 -44 -14
-51 -9 -27 18 21 23 50 26 58 6z m760 1 c3 -7 -16 -22 -49 -38 -30 -14 -54
-22 -54 -19 0 19 63 70 86 70 7 0 14 -6 17 -13z m-1584 -10 c6 -8 29 -20 52
-27 48 -16 79 -52 79 -91 0 -23 -4 -27 -17 -22 -10 3 -26 15 -36 27 -15 17
-18 17 -13 4 13 -43 -69 3 -84 45 -20 58 -9 97 19 64z m683 -16 c41 -36 32
-49 -13 -22 -19 12 -42 21 -51 21 -11 0 -15 5 -12 15 9 24 41 18 76 -14z
m-388 -50 c-2 -60 -22 -111 -41 -104 -10 4 -14 2 -10 -4 4 -6 -1 -32 -10 -59
l-17 -49 -12 30 c-23 54 -17 101 20 156 19 27 38 59 41 70 11 33 30 5 29 -40z
m550 27 c15 -24 -1 -36 -18 -13 -12 17 -17 18 -42 7 l-29 -12 24 20 c27 24 49
23 65 -2z m572 7 c17 -13 16 -14 -18 -8 -31 5 -38 3 -38 -11 0 -9 -4 -16 -10
-16 -11 0 -14 33 -3 43 11 12 48 8 69 -8z m-761 -11 c18 -8 36 -22 39 -31 5
-11 -2 -9 -28 6 -41 26 -62 27 -75 4 -7 -13 -13 -15 -21 -7 -8 8 -7 16 5 28
21 20 38 20 80 0z m965 1 c10 -12 10 -19 2 -27 -8 -8 -16 -5 -29 11 l-18 22
-40 -21 c-51 -26 -57 -25 -20 5 34 28 86 33 105 10z m-658 -85 c40 -27 89 -72
99 -94 6 -12 -5 -4 -25 17 -26 27 -43 37 -67 37 -29 0 -31 -2 -27 -27 3 -16 9
-36 13 -47 7 -16 5 -17 -16 -11 -13 4 -27 10 -30 14 -4 3 -5 50 -2 105 6 97 6
98 19 60 7 -22 23 -46 36 -54z m-142 65 c0 -9 7 -18 15 -21 28 -11 15 -19 -30
-19 -50 -1 -59 14 -23 39 28 20 38 20 38 1z m593 1 c9 -7 17 -21 17 -30 0 -14
-4 -15 -21 -6 -11 7 -33 9 -47 6 -24 -6 -25 -5 -9 7 9 8 17 19 17 26 0 15 21
14 43 -3z m-765 -10 c36 -19 66 -52 57 -66 -4 -7 -18 -4 -41 11 -24 14 -46 20
-69 17 -24 -3 -35 0 -35 9 0 7 6 10 14 7 9 -3 20 3 28 15 15 25 12 24 46 7z
m936 -1 c3 -8 15 -15 26 -15 11 0 20 -4 20 -9 0 -6 -15 -7 -32 -5 -25 4 -43
-1 -70 -20 -21 -14 -38 -24 -38 -22 0 3 -3 11 -6 19 -3 10 8 24 33 41 43 30
58 32 67 11z m-1493 -79 c56 -16 78 -35 93 -83 9 -27 -6 -30 -46 -9 -15 8 -28
10 -30 5 -2 -5 -22 1 -46 12 -43 21 -52 34 -66 92 -6 27 -6 27 16 13 13 -7 48
-21 79 -30z m749 25 c6 -12 6 -22 1 -25 -5 -3 -12 1 -15 10 -5 12 -14 15 -39
10 -30 -5 -31 -5 -13 9 27 21 53 19 66 -4z m586 4 c23 -17 11 -20 -18 -4 -18
10 -25 8 -39 -10 -11 -13 -20 -17 -24 -11 -10 16 14 40 39 40 12 0 31 -7 42
-15z m208 -13 c2 -4 0 -14 -5 -22 -8 -13 -12 -11 -28 9 l-19 24 -36 -21 c-46
-27 -54 -28 -31 -2 33 36 100 43 119 12z m-976 -2 c17 -11 32 -24 32 -30 0 -5
-15 -1 -32 10 -40 24 -57 25 -73 3 -17 -23 -38 -8 -25 18 14 25 56 25 98 -1z
m156 -17 c4 -9 0 -23 -9 -32 -13 -14 -17 -14 -32 1 -13 14 -14 20 -3 32 16 21
36 20 44 -1z m600 11 c21 -8 20 -28 0 -45 -14 -11 -18 -10 -29 5 -14 18 -10
46 5 46 5 0 15 -3 24 -6z m-757 -30 c24 -18 33 -33 31 -47 -3 -19 -10 -22 -55
-25 -48 -3 -53 -1 -53 18 0 13 -8 24 -20 27 -11 3 -20 10 -20 15 0 6 9 8 20 5
14 -4 25 1 33 14 16 25 23 24 64 -7z m937 10 c4 -11 13 -14 31 -10 30 8 34
-10 5 -19 -13 -4 -20 -15 -20 -31 0 -20 -5 -24 -29 -24 -81 0 -107 44 -48 80
39 24 53 25 61 4z m-180 -36 c14 6 26 9 26 5 0 -10 -34 -32 -51 -33 -21 0 -43
26 -34 40 5 7 11 5 20 -7 11 -15 17 -15 39 -5z m-604 -3 c7 8 16 12 22 9 14
-9 -12 -34 -36 -34 -22 0 -46 17 -46 32 0 5 11 2 24 -7 21 -14 25 -14 36 0z
m-248 -28 c-4 -23 34 -40 75 -32 24 4 33 3 28 -4 -3 -6 -28 -11 -54 -11 -53 0
-89 26 -77 55 8 21 32 14 28 -8z m1093 13 c21 -34 -55 -71 -112 -54 -25 7 -21
9 27 14 50 4 55 7 53 28 -3 22 20 31 32 12z m-833 -21 c12 7 18 8 18 1 0 -6
-11 -15 -24 -20 -13 -5 -26 -15 -28 -22 -7 -19 -48 19 -48 44 0 18 2 18 32 2
25 -13 36 -14 50 -5z m624 -4 c-4 -16 -2 -25 5 -25 7 0 5 -8 -6 -20 -22 -24
-34 -18 -14 7 12 15 12 16 -3 10 -16 -6 -78 21 -78 33 0 4 15 4 34 2 18 -2 37
1 40 7 13 21 28 11 22 -14z m234 -15 c0 -5 -4 -10 -10 -10 -5 0 -10 5 -10 10
0 6 5 10 10 10 6 0 10 -4 10 -10z m-1126 -21 c28 -16 45 -19 76 -14 34 6 39 4
34 -9 -12 -32 -119 -36 -119 -4 0 9 -9 24 -20 32 -29 22 -12 19 29 -5z m212
-26 c-7 -7 -26 7 -26 19 0 6 6 6 15 -2 9 -7 13 -15 11 -17z m877 5 c6 -22 -1
-28 -34 -28 -36 0 -75 15 -81 32 -4 10 9 13 53 13 46 0 59 -3 62 -17z m42 -9
c0 -38 -76 -64 -115 -39 -11 7 -5 10 25 10 48 0 70 12 62 33 -7 17 2 29 17 24
6 -2 11 -14 11 -28z m-1155 1 c0 -26 39 -41 82 -34 25 4 29 3 18 -5 -17 -12
-63 -14 -97 -5 -23 6 -39 36 -28 54 10 17 25 11 25 -10z m230 -32 c0 -10 -4
-18 -10 -18 -12 0 -30 33 -30 56 0 16 1 16 20 -1 11 -10 20 -26 20 -37z m691
-1 c-20 -20 -21 -20 -21 -3 0 11 8 28 18 39 16 18 17 18 20 2 2 -10 -5 -27
-17 -38z m-501 5 c68 -68 58 -174 -23 -259 -17 -18 -34 -33 -37 -33 -4 0 -5
35 -2 77 4 69 8 81 33 104 16 15 29 29 29 32 0 21 -22 57 -35 57 -9 0 -15 9
-15 25 0 33 15 32 50 -3z m348 0 c3 -17 -2 -22 -17 -22 -47 0 -47 -61 0 -94
18 -12 22 -28 27 -101 5 -86 5 -87 -16 -76 -66 35 -112 146 -92 222 21 76 90
127 98 71z m45 -142 c4 -89 5 -165 2 -168 -16 -16 -23 29 -28 176 -5 127 -4
163 6 159 8 -2 14 -53 20 -167z m-457 152 c-2 -4 -7 -75 -11 -156 -6 -150 -8
-166 -26 -166 -9 0 -3 286 6 318 3 6 12 12 20 12 9 0 14 -4 11 -8z m815 -15
c-10 -9 -11 -8 -5 6 3 10 9 15 12 12 3 -3 0 -11 -7 -18z m-1206 3 c3 -5 1 -10
-4 -10 -6 0 -11 5 -11 10 0 6 2 10 4 10 3 0 8 -4 11 -10z m265 -42 c0 -5 -3
-8 -7 -8 -10 0 -43 32 -43 42 0 11 49 -24 50 -34z m701 11 c-13 -11 -26 -17
-29 -15 -3 3 6 14 19 25 13 11 26 17 29 14 3 -2 -6 -13 -19 -24z m-969 -12
c-3 -19 12 -29 58 -38 l35 -7 -41 -1 c-50 -1 -91 26 -81 53 8 21 33 15 29 -7z
m96 10 c22 1 32 -2 29 -10 -2 -7 -27 -13 -55 -15 -47 -3 -52 -1 -52 18 0 18 4
20 23 13 12 -4 37 -7 55 -6z m177 -37 c15 0 28 -27 19 -41 -10 -17 -34 -9 -71
24 -26 24 -34 39 -30 51 6 16 10 15 38 -8 17 -14 36 -26 44 -26z m740 40 c18
-28 -70 -101 -93 -78 -13 13 2 48 22 48 7 0 21 9 31 20 20 22 31 25 40 10z
m178 -4 c8 -20 -2 -26 -44 -26 -75 0 -96 26 -26 33 23 2 47 4 53 5 7 1 14 -4
17 -12z m42 4 c10 -16 -13 -47 -41 -54 -15 -4 -41 -4 -58 1 -29 7 -28 8 19 13
42 4 50 8 53 28 4 23 16 29 27 12z m21 -42 c-9 -5 -16 -16 -16 -23 0 -12 -13
-15 -57 -14 -32 1 -44 4 -28 6 44 6 83 23 89 40 3 8 11 11 17 7 8 -5 6 -10 -5
-16z m-1755 -33 c55 -59 100 -86 177 -105 l63 -15 -36 -48 c-34 -44 -39 -48
-68 -42 -51 11 -137 53 -192 94 -27 21 -61 45 -74 54 l-24 16 28 7 c16 4 42 2
59 -4 37 -14 43 -9 28 23 -12 26 -16 65 -7 65 2 0 23 -20 46 -45z m2258 -21
c-16 -32 -11 -35 37 -22 23 6 49 8 59 4 14 -5 -1 -20 -71 -71 -85 -62 -199
-113 -227 -102 -7 2 -27 25 -44 50 l-32 45 58 11 c66 13 128 50 186 110 37 39
40 41 43 20 2 -12 -2 -33 -9 -45z m-1486 -4 c13 0 28 5 35 12 9 9 15 9 25 -1
10 -10 8 -15 -8 -27 -26 -20 -69 -11 -112 22 -18 14 -33 21 -33 16 0 -16 61
-53 95 -59 21 -3 41 -1 50 7 13 10 15 9 15 -9 0 -12 -6 -21 -15 -21 -8 0 -24
-5 -34 -12 -36 -22 -126 65 -114 110 5 22 6 22 40 -8 18 -16 44 -30 56 -30z
m725 14 c-28 -25 -47 -34 -72 -34 -39 0 -69 26 -42 36 9 3 23 1 31 -6 18 -15
63 1 91 31 9 11 20 16 23 13 3 -3 -11 -21 -31 -40z m-951 15 c30 0 34 -2 18
-9 -11 -5 -37 -9 -57 -9 -32 -1 -38 2 -38 19 0 17 3 19 19 10 11 -5 37 -10 58
-11z m-87 -8 c0 -16 8 -21 43 -24 l42 -4 -46 -1 c-47 -2 -78 16 -64 38 10 17
25 11 25 -9z m1320 10 c0 -16 -30 -41 -48 -41 -15 1 -15 2 1 11 9 5 17 17 17
24 0 8 7 15 15 15 8 0 15 -4 15 -9z m-262 -43 c-37 -48 -72 -65 -102 -49 -13
8 -29 10 -35 7 -7 -4 -11 1 -11 14 0 17 3 19 19 10 28 -14 74 -2 113 30 42 35
48 30 16 -12z m-795 -52 c36 -28 66 -33 84 -15 18 18 35 1 23 -22 -14 -25 -56
-25 -97 1 -37 22 -95 98 -87 112 4 5 14 -4 24 -20 10 -16 34 -41 53 -56z m847
78 c0 -17 -60 -86 -95 -108 -45 -30 -67 -32 -90 -10 -12 13 -13 19 -4 30 10
12 14 12 30 -2 10 -9 26 -13 36 -10 22 7 68 49 89 81 15 23 34 33 34 19z
m-892 -85 c35 -42 103 -72 136 -59 26 10 27 9 24 -23 -3 -30 -5 -32 -47 -35
-58 -4 -77 3 -61 23 19 23 4 48 -25 41 -19 -5 -29 0 -49 27 -14 19 -28 49 -31
68 l-6 34 18 -25 c10 -13 28 -36 41 -51z m912 56 c0 -20 -36 -91 -50 -100 -6
-3 -19 -3 -31 0 -19 6 -17 10 20 51 23 24 41 48 41 54 0 5 5 10 10 10 6 0 10
-7 10 -15z m185 -5 c-3 -5 -23 -9 -43 -9 l-37 2 35 7 c52 11 52 11 45 0z
m-1272 -7 c-13 -2 -35 -2 -50 0 -16 2 -5 4 22 4 28 0 40 -2 28 -4z m1092 -52
c-13 -27 -31 -56 -40 -65 -28 -28 -88 -16 -70 14 5 8 11 7 20 0 22 -18 52 5
77 59 12 27 26 47 30 45 4 -3 -3 -27 -17 -53z m-970 9 c22 -49 49 -74 71 -66
23 9 37 -3 23 -20 -28 -34 -79 5 -114 89 -21 50 -3 47 20 -3z m-17 -27 c22
-45 24 -75 2 -34 -6 12 -17 21 -25 21 -10 0 -15 10 -15 30 0 42 11 37 38 -17z
m1032 17 c0 -20 -5 -30 -15 -30 -8 0 -19 -9 -25 -20 -6 -11 -15 -20 -19 -20
-5 0 3 22 18 50 30 57 41 63 41 20z m-1256 11 c3 -5 -5 -11 -19 -13 -24 -5
-32 2 -18 15 9 10 31 9 37 -2z m1481 -1 c3 -5 -3 -10 -15 -10 -12 0 -18 5 -15
10 3 6 10 10 15 10 5 0 12 -4 15 -10z m-395 -72 c0 -9 5 -20 10 -23 22 -14 -4
-25 -56 -25 l-54 0 0 33 c0 32 0 32 50 32 40 0 50 -3 50 -17z m-1162 -48 c20
-5 62 -10 92 -10 55 0 130 -26 145 -50 11 -18 -14 -30 -64 -30 -37 0 -48 -5
-75 -35 l-31 -34 -87 18 c-48 10 -95 24 -103 31 -25 20 -17 59 21 112 35 47
37 48 51 29 7 -11 30 -25 51 -31z m956 -102 c78 -40 237 -33 329 14 22 11 40
18 41 16 7 -11 26 -60 26 -67 0 -23 -219 -91 -360 -112 -116 -16 -380 -6 -491
19 -107 25 -249 80 -249 96 0 6 7 21 14 32 l15 21 68 -23 c186 -63 328 -27
413 105 l33 51 60 -66 c33 -36 78 -74 101 -86z m759 95 c20 -31 37 -62 37 -68
0 -26 -43 -48 -127 -66 l-88 -18 -31 34 c-27 30 -38 35 -75 35 -50 0 -75 12
-64 30 15 24 90 50 145 50 71 0 127 16 143 41 6 10 14 19 17 19 3 0 22 -26 43
-57z m-1492 -152 c104 -49 214 -85 327 -108 131 -27 393 -24 531 6 107 23 236
68 331 116 l54 27 28 -33 c15 -19 40 -51 55 -72 23 -33 24 -40 12 -52 -26 -25
-173 -92 -269 -123 -177 -56 -253 -67 -490 -67 -238 0 -331 14 -509 77 -124
44 -264 116 -257 133 4 12 97 135 101 135 1 0 40 -18 86 -39z"/>
<path d="M1361 390 c-12 -29 -21 -53 -19 -54 20 -13 62 -25 67 -20 3 4 2 8 -4
11 -37 14 -40 21 -22 59 11 22 14 41 9 46 -5 5 -18 -12 -31 -42z"/>
<path d="M2577 424 l-27 -15 25 -49 25 -50 35 17 c35 17 51 42 18 28 -48 -20
-72 3 -26 25 16 7 23 15 16 17 -7 2 -21 -1 -32 -6 -14 -8 -22 -8 -27 1 -4 6
-3 13 3 15 6 2 19 10 29 18 26 20 -2 19 -39 -1z"/>
<path d="M1461 359 c-7 -23 -15 -47 -18 -55 -3 -8 0 -14 7 -14 6 0 14 9 17 20
6 21 12 24 37 14 11 -4 14 -13 10 -30 -12 -46 15 -24 29 24 15 50 10 81 -6 43
-14 -29 -41 -23 -45 12 -5 39 -17 33 -31 -14z"/>
<path d="M2518 363 l-3 -38 -14 28 c-22 42 -41 35 -41 -15 l0 -43 -20 33 c-11
18 -24 30 -30 27 -12 -7 41 -94 58 -95 8 0 12 15 12 43 1 40 1 41 16 22 8 -11
19 -27 24 -35 16 -28 28 3 23 58 -6 60 -20 69 -25 15z"/>
<path d="M1586 331 c-24 -27 -17 -72 13 -88 50 -24 98 34 67 82 -20 30 -56 33
-80 6z m64 -16 c10 -12 9 -20 -4 -40 -18 -28 -27 -30 -44 -13 -23 23 -7 68 24
68 6 0 17 -7 24 -15z"/>
<path d="M2335 328 c-2 -7 -6 -35 -9 -63 -6 -48 -5 -49 10 -27 16 22 64 31 64
12 0 -5 5 -10 10 -10 17 0 11 18 -17 59 -28 41 -50 51 -58 29z m35 -39 c0 -5
-4 -9 -10 -9 -5 0 -10 7 -10 16 0 8 5 12 10 9 6 -3 10 -10 10 -16z"/>
<path d="M1706 293 c-8 -53 -7 -73 3 -73 5 0 11 9 14 20 7 28 25 25 33 -5 3
-14 12 -25 20 -25 12 0 12 5 0 35 -14 33 -14 36 6 50 12 8 19 18 15 22 -4 3
-21 -3 -37 -16 l-30 -22 0 26 c0 38 -17 30 -24 -12z"/>
<path d="M2238 283 l-4 -38 -13 33 c-8 20 -20 32 -32 32 -16 0 -18 -5 -13 -47
8 -60 24 -80 25 -32 l1 34 11 -27 c13 -35 37 -37 37 -4 0 14 5 28 10 31 6 4
10 -7 10 -24 0 -17 5 -31 10 -31 11 0 12 19 4 73 -5 27 -12 37 -25 37 -13 0
-19 -9 -21 -37z"/>
<path d="M1837 303 c-15 -15 -6 -44 17 -53 31 -11 40 -26 21 -34 -8 -3 -22 2
-30 11 -20 19 -33 9 -15 -12 21 -25 74 -16 78 13 3 18 -3 26 -27 35 -41 15
-40 31 1 21 29 -6 31 -5 19 10 -13 16 -52 22 -64 9z"/>
<path d="M2128 304 c-5 -4 -8 -27 -8 -51 0 -37 -3 -44 -17 -41 -13 2 -19 15
-21 46 -2 26 -8 42 -16 42 -17 0 -9 -91 8 -102 18 -13 56 -9 62 6 8 20 0 109
-8 100z"/>
<path d="M1940 245 l0 -55 40 0 c22 0 40 5 40 10 0 6 -13 10 -30 10 -20 0 -30
5 -30 15 0 10 10 15 30 15 17 0 30 5 30 10 0 6 -13 10 -30 10 -16 0 -30 5 -30
10 0 6 14 10 30 10 17 0 30 5 30 10 0 6 -18 10 -40 10 l-40 0 0 -55z"/>
</g>
</svg>
